<?xml version="1.0" ?><svg viewBox="0 0 32 32" xmlns="http://www.w3.org/2000/svg"><title/><g data-name="background, foreground, css, effect, shadow, gradient, tool" id="background_foreground_css_effect_shadow_gradient_tool"><path d="M29.92,2.62a1,1,0,0,0-.54-.54A1,1,0,0,0,29,2H9A1,1,0,0,0,8,3V8H3A1,1,0,0,0,2,9V29a1,1,0,0,0,1,1H23a1,1,0,0,0,1-1V24h5a1,1,0,0,0,1-1V3A1,1,0,0,0,29.92,2.62ZM28,17.59,23.59,22H21.41L28,15.41Zm0-5L18.59,22H16.41L28,10.41Zm0-5L13.59,22H11.41L28,5.41ZM16.59,4,10,10.59V8.41L14.41,4Zm5,0L10,15.59V13.41L19.41,4ZM10,18.41,24.41,4h2.18L10,20.59ZM11.59,4,10,5.59V4ZM22,28H4V10H8V23a1,1,0,0,0,.08.38,1,1,0,0,0,.54.54A1,1,0,0,0,9,24H22Zm4.41-6L28,20.41V22Z"/></g></svg>